<svg width="10" height="10" viewBox="0 0 10 10" xmlns="http://www.w3.org/2000/svg"><g id="Icons" fill="none" fill-rule="evenodd"><g id="artboard"><path id="bound" d="M0 0h10v10H0z"/><path d="M7.51342282 8.4921875H2.48657718v-6.984375h5.02684564v6.984375zM2.48657718.5c-.2818806 0-.51677758.09765527-.704698.29296875C1.5939588.98828223 1.5 1.2265611 1.5 1.5078125v6.984375c0 .2812514.0939588.51953027.2818792.71484375C1.9697996 9.40234473 2.20469657 9.5 2.48657717 9.5h5.02684564c.2818806 0 .51677758-.09765527.704698-.29296875C8.4060412 9.01171777 8.5 8.7734389 8.5 8.4921875v-6.984375c0-.29687648-.0939588-.53906156-.2818792-.7265625C8.0302004.59374906 7.79530343.5 7.51342283.5H2.48657718z" id="icon" fill="rgba(255, 255, 255, 0.6)"/></g></g></svg>