<svg width="10" height="10" viewBox="0 0 10 10" xmlns="http://www.w3.org/2000/svg"><g id="Icons" fill="none" fill-rule="evenodd"><g id="page"><path id="bound" d="M0 0h10v10H0z"/><path d="M6.0078125 3.9921875H8.75L6.0078125 1.25v2.7421875zM1.5078125.5H6.5l3 3v4.9921875c0 .2812514-.09765527.51953027-.29296875.71484375C9.01171777 9.40234473 8.7734389 9.5 8.4921875 9.5h-6.984375c-.29687648 0-.53906156-.09765527-.7265625-.29296875C.59374906 9.01171777.5 8.7734389.5 8.4921875v-6.984375C.5 1.21093602.59374906.96875094.78125.78125.96875094.59374906 1.21093602.5 1.5078125.5zm0 1.0078125v6.984375h6.984375V5H5V1.5078125H1.5078125z" id="icon" fill="rgba(0, 0, 0, 0.3)"/></g></g></svg>