<svg width="10" height="10" viewBox="0 0 10 10" xmlns="http://www.w3.org/2000/svg"><g id="Icons" fill="none" fill-rule="evenodd"><g id="symbol"><path id="bound" d="M0 0h10v10H0z"/><path d="M7.11570248 7.1787234C7.69972744 6.5546068 7.99173554 5.82837294 7.99173554 5s-.2920081-1.5546068-.87603306-2.1787234c-.36363818-.37446996-.7768572-.62978656-1.23966942-.76595745V1c.72727636.15886604 1.3774076.52198298 1.95041322 1.0893617C8.60881934 2.9404298 9 3.91063285 9 5s-.39118066 2.0595702-1.17355372 2.9106383L8.88429752 9l-2.82644628-.01702128V6.0893617l1.05785124 1.0893617zm-6-6.1787234l2.82644628.01702128V3.9106383L2.88429752 2.8212766C2.30027256 3.4453932 2.00826446 4.17162706 2.00826446 5s.2920081 1.5546068.87603306 2.1787234c.36363818.37446996.7768572.62978656 1.23966942.76595745V9c-.72727636-.15886604-1.3774076-.52198298-1.95041322-1.0893617C1.39118066 7.0595702 1 6.08936715 1 5s.39118066-2.0595702 1.17355372-2.9106383L1.11570248 1z" id="icon" fill="#B36ED4"/></g></g></svg>