<svg width="10" height="10" viewBox="0 0 10 10" xmlns="http://www.w3.org/2000/svg"><g id="Icons" fill="none" fill-rule="evenodd"><g id="shape"><path id="bound" d="M0 0h10v10H0z"/><path d="M0 0h3.00469484v.9859155h3.99061032V0H10v3.00469484h-.9859155v3.99061032H10V10H6.99530516v-.9859155H3.00469484V10H0V6.99530516h.9859155V3.00469484H0V0zm6.99530516 3.00469484V1.99530516H3.00469484v1.00938968H1.99530516v3.99061032h1.00938968v1.00938968h3.99061032V6.99530516h1.00938968V3.00469484H6.99530516zM.9859155.9859155v1.00938966h1.00938966V.9859155H.9859155zm7.01877934 0v1.00938966H9.0140845V.9859155H8.00469485zM.9859155 8.00469483V9.0140845h1.00938966V8.00469485H.9859155zm7.01877934 0V9.0140845H9.0140845V8.00469485H8.00469485z" id="icon" fill="#5BC265"/></g></g></svg>