<svg width="10" height="10" viewBox="0 0 10 10" xmlns="http://www.w3.org/2000/svg"><g id="Icons" fill="none" fill-rule="evenodd"><g id="text"><path id="bound" d="M0 0h10v10H0z"/><path d="M3.88676032 6.51255854H1.54533844L.97914006 8.1430396H0L2.2179651 2h1.0259685l2.21796508 6.1430396h-1.0131971l-.56194126-1.63048106zM1.7879949 5.71221797h1.85610897l-.8897403-2.59684973h-.07237123L1.7879949 5.71221797zM7.88846317 7.4491273c.17312418 0 .33276498-.02554254.4789272-.07662836.14616222-.05108583.27245583-.1220373.37888463-.21285654.1064288-.09081924.19015154-.19795596.25117072-.32141337.06101918-.1234574.0915283-.25755568.0915283-.40229885v-.3873989l-1.13239675.07237123c-.32070545.02270482-.5555548.0886897-.70455513.1979566-.14900032.1092669-.22349936.26606964-.22349936.47041293 0 .10500975.02128544.19795617.06385696.27884206.04257152.08088588.10217075.1497088.1787995.20647083.07662872.05676203.1674466.10004242.27245635.1298425.10500974.02980005.21995112.04469986.34482758.04469986zm-.2341422.77054064c-.22421 0-.43067877-.03263767-.6194125-.097914-.18873375-.06527633-.35192212-.15822276-.48957004-.27884206-.1376479-.1206193-.24478463-.26606982-.32141337-.4363559-.07662873-.17028608-.11494252-.36185504-.11494252-.57471264 0-.420039.14899808-.74712527.44699872-.98126863.29800064-.23414335.72370945-.36824162 1.2771392-.40229884l1.25585356-.07237122v-.40017028c0-.24691482-.07946564-.43635524-.23839932-.56832695-.15893366-.1319717-.39591157-.19795657-.7109408-.19795657-.25826723 0-.47112164.04469943-.63856962.13409962-.16744798.0894002-.27671324.21640332-.32779906.3810132h-.8854832c.02270483-.1986671.08514212-.37888383.18731377-.5406556.10217163-.16177178.2355604-.29941763.40017027-.41294168.16460988-.11352405.35759787-.20079436.57896978-.26181354.2213719-.06101918.46402592-.0915283.72796934-.0915283.28948633 0 .54704016.03547573.7726692.10642826.22562907.07095252.415779.17312264.57045553.3065134.15467652.13339076.27245596.29657914.35334185.48957003C9.95955766 4.51312713 10 4.73165763 10 4.97573436V8.1430396h-.88122605v-.651341h-.07237123c-.13906696.2327243-.3292169.41223152-.5704555.53852703-.24123862.1262955-.5151113.1894423-.82162623.1894423z" id="Aa" fill="rgba(0, 0, 0, 0.5)"/></g></g></svg>