<svg width="10" height="10" viewBox="0 0 10 10" xmlns="http://www.w3.org/2000/svg"><g id="Icons" fill="none" fill-rule="evenodd"><g id="group"><path id="bound" d="M0 0h10v10H0z"/><path d="M9.0140845 7.99415205H.9859155V3.0116959h8.028169v4.98245615zM5 2.00584795L3.99061033 1H.9859155c-.28169156.01559462-.516431.11695813-.70422536.30409357C.09389577 1.491229 0 1.7251448 0 2.00584795v5.9883041c0 .28070315.09389577.51461894.28169014.70175438C.4694845 8.88304187.70422394 8.98440538.9859155 9h8.028169c.28169156-.01559462.516431-.11695813.70422536-.30409357C9.90610423 8.508771 10 8.2748552 10 7.99415205V3.0116959c0-.29629777-.09389577-.53801075-.28169014-.7251462-.18779437-.18713543-.4225338-.28070175-.70422535-.28070175H5z" id="icon" fill="#57A6FA"/></g></g></svg>